# xmcd
#
# Track frame offsets: 
#        225
#        17807
#        34272
#        57222
#        76337
#        97075
#        118422
#        136552
#        154980
#        177277
#
# Disc length: 2567 seconds
#
# Revision: 5
# Processed by: cddbd v1.5.2PL0 Copyright (c) Steve Scherf et al.
# Submitted via: ExactAudioCopy v1.3
#
DISCID=820a040a
DTITLE=李翊君  Lee Yik Kwan - 媚情妖女【誰能禁止我的愛】
DYEAR=1996
DGENRE=Pop
TTITLE0=今天不回家
TTITLE1=昨夜夢醒時
TTITLE2=夜空
TTITLE3=明日天涯
TTITLE4=不如歸去
TTITLE5=誰能禁止我的愛
TTITLE6=只要為你活一天
TTITLE7=風凄凄意綿綿
TTITLE8=嚮往
TTITLE9=愛你一萬年
EXTD=
EXTT0=
EXTT1=
EXTT2=
EXTT3=
EXTT4=
EXTT5=
EXTT6=
EXTT7=
EXTT8=
EXTT9=
PLAYORDER=
